<?xml version="1.0" encoding="UTF-8" standalone="no"?>
<svg
   xmlns:dc="http://purl.org/dc/elements/1.1/"
   xmlns:cc="http://creativecommons.org/ns#"
   xmlns:rdf="http://www.w3.org/1999/02/22-rdf-syntax-ns#"
   xmlns:svg="http://www.w3.org/2000/svg"
   xmlns="http://www.w3.org/2000/svg"
   viewBox="0 0 1459.3867 438.53601"
   height="438.53601"
   width="1459.3867"
   xml:space="preserve"
   id="svg2"
   version="1.1"><metadata
     id="metadata8"><rdf:RDF><cc:Work
         rdf:about=""><dc:format>image/svg+xml</dc:format><dc:type
           rdf:resource="http://purl.org/dc/dcmitype/StillImage" /></cc:Work></rdf:RDF></metadata><defs
     id="defs6"><clipPath
       id="clipPath18"
       clipPathUnits="userSpaceOnUse"><path
         id="path16"
         d="M 0,328.902 H 1094.541 V 0 H 0 Z" /></clipPath><clipPath
       id="clipPath36"
       clipPathUnits="userSpaceOnUse"><path
         id="path34"
         d="M 123.3,307.945 55.162,268.651 C 31.906,255.24 17.577,230.435 17.577,203.589 v 0 -78.437 c 0,-26.847 14.33,-51.653 37.587,-65.063 v 0 l 68.138,-39.293 c 23.219,-13.389 51.815,-13.389 75.036,0 v 0 l 68.139,39.293 c 23.256,13.41 37.586,38.216 37.586,65.063 v 0 78.437 c 0,26.846 -14.329,51.651 -37.585,65.062 v 0 l -68.138,39.294 c -11.61,6.695 -24.565,10.043 -37.52,10.043 v 0 c -12.955,0 -25.91,-3.348 -37.52,-10.043" /></clipPath><clipPath
       id="clipPath68"
       clipPathUnits="userSpaceOnUse"><path
         id="path66"
         d="M 0,328.902 H 1094.541 V 0 H 0 Z" /></clipPath><clipPath
       id="clipPath80"
       clipPathUnits="userSpaceOnUse"><path
         id="path78"
         d="M 130.138,281.776 74.42,249.644 C 55.403,238.677 43.685,218.394 43.685,196.441 v 0 -64.141 c 0,-21.953 11.719,-42.237 30.737,-53.204 v 0 l 55.717,-32.129 c 18.988,-10.95 42.374,-10.95 61.361,0 v 0 l 55.718,32.129 c 19.018,10.967 30.736,31.251 30.736,53.204 v 0 64.141 c 0,21.953 -11.717,42.236 -30.735,53.203 v 0 l -55.717,32.132 c -9.495,5.475 -20.088,8.212 -30.682,8.212 v 0 c -10.594,0 -21.188,-2.737 -30.682,-8.212" /></clipPath><clipPath
       id="clipPath112"
       clipPathUnits="userSpaceOnUse"><path
         id="path110"
         d="M 0,328.902 H 1094.541 V 0 H 0 Z" /></clipPath></defs><g
     transform="matrix(1.3333333,0,0,-1.3333333,0,438.536)"
     id="g10"><g
       id="g12"><g
         clip-path="url(#clipPath18)"
         id="g14"><text
           id="text24"
           style="font-variant:normal;font-weight:bold;font-stretch:normal;font-size:178.69290161px;font-family:Arvo;-inkscape-font-specification:Arvo-Bold;writing-mode:lr-tb;fill:#1a773c;fill-opacity:1;fill-rule:nonzero;stroke:none"
           transform="matrix(1,0,0,-1,341.0879,122.5361)"><tspan
             id="tspan20"
             y="0"
             x="0 108.64529 177.79944">SIN</tspan><tspan
             id="tspan22"
             y="0"
             x="318.78815 516.24377 629.5351">MED</tspan></text>
<text
           id="text28"
           style="font-variant:normal;font-weight:normal;font-stretch:normal;font-size:43.86959839px;font-family:Montserrat;-inkscape-font-specification:Montserrat-Regular;writing-mode:lr-tb;fill:#1b9440;fill-opacity:1;fill-rule:nonzero;stroke:none"
           transform="matrix(1,0,0,-1,339.8633,61.6895)"><tspan
             id="tspan26"
             y="0"
             x="0 27.637848 39.658119 67.997879 97.478249 109.49852 134.59193 160.07579 178.23779 206.84077 218.86105 248.34142 276.9444 299.14243 311.16269 354.2865 381.39792 410.8783 422.89856 447.68488 476.28787 498.48587 510.50613 539.98651 567.09796 579.11823 611.66943 623.6897 649.44116 678.1319 706.73486 732.48633">Sindicato dos Médicos de Alagoas</tspan></text>
</g></g><g
       id="g30"><g
         clip-path="url(#clipPath36)"
         id="g32"><g
           transform="translate(306.9217,246.6908)"
           id="g38"><path
             id="path40"
             style="fill:#1b9440;fill-opacity:1;fill-rule:nonzero;stroke:none"
             d="m 0,0 c 13.985,-24.182 21.98,-52.264 21.98,-82.239 0,-29.949 -7.995,-58.031 -21.952,-82.212 H 0 l -142.359,82.156 v 0.111 z" /></g><g
           transform="translate(306.9217,82.2397)"
           id="g42"><path
             id="path44"
             style="fill:#226135;fill-opacity:1;fill-rule:nonzero;stroke:none"
             d="m 0,0 h 0.028 c -28.416,-49.171 -81.487,-82.212 -142.387,-82.239 v 164.2 0.195 z" /></g><g
           transform="translate(306.9217,246.6908)"
           id="g46"><path
             id="path48"
             style="fill:#1a773c;fill-opacity:1;fill-rule:nonzero;stroke:none"
             d="M 0,0 -142.359,-82.184 V 81.877 82.212 C -81.487,82.184 -28.388,49.144 0,0" /></g><g
           transform="translate(164.5623,164.2006)"
           id="g50"><path
             id="path52"
             style="fill:#1a773c;fill-opacity:1;fill-rule:nonzero;stroke:none"
             d="m 0,0 v -164.2 h -0.111 c -60.9,0 -114.054,33.04 -142.471,82.211 l 0.028,0.028 L -0.111,0.251 0,0.195 Z" /></g><g
           transform="translate(164.5623,328.5678)"
           id="g54"><path
             id="path56"
             style="fill:#226135;fill-opacity:1;fill-rule:nonzero;stroke:none"
             d="m 0,0 v -164.061 l -0.111,-0.055 -142.443,82.239 -0.028,0.027 c 28.444,49.172 81.571,82.185 142.471,82.185 l 0.111,0 z" /></g><g
           transform="translate(164.451,164.4516)"
           id="g58"><path
             id="path60"
             style="fill:#1b9440;fill-opacity:1;fill-rule:nonzero;stroke:none"
             d="m 0,0 -142.442,-82.212 -0.029,-0.028 c -13.984,24.181 -21.98,52.263 -21.98,82.24 0,29.976 7.996,58.086 21.98,82.267 l 0.029,-0.028 z" /></g></g></g><g
       id="g62"><g
         clip-path="url(#clipPath68)"
         id="g64"><g
           transform="translate(74.4197,249.644)"
           id="g70"><path
             id="path72"
             style="fill:#ffffff;fill-opacity:1;fill-rule:nonzero;stroke:none"
             d="m 0,0 55.719,32.132 c 18.988,10.95 42.374,10.95 61.363,0 L 172.8,0 c 19.017,-10.967 30.734,-31.25 30.734,-53.203 v -64.141 c 0,-21.953 -11.718,-42.237 -30.735,-53.204 l -55.719,-32.13 c -18.987,-10.949 -42.372,-10.949 -61.36,0 l -55.718,32.13 c -19.018,10.967 -30.736,31.251 -30.736,53.204 v 64.141 C -30.734,-31.25 -19.017,-10.967 0,0" /></g></g></g><g
       id="g74"><g
         clip-path="url(#clipPath80)"
         id="g76"><g
           transform="translate(280.2918,231.6859)"
           id="g82"><path
             id="path84"
             style="fill:#ffffff;fill-opacity:1;fill-rule:nonzero;stroke:none"
             d="m 0,0 c 11.436,-19.773 17.974,-42.737 17.974,-67.249 0,-24.49 -6.538,-47.453 -17.952,-67.228 H 0 l -116.411,67.182 v 0.091 z" /></g><g
           transform="translate(280.2918,97.2094)"
           id="g86"><path
             id="path88"
             style="fill:#ffffff;fill-opacity:1;fill-rule:nonzero;stroke:none"
             d="m 0,0 h 0.022 c -23.236,-40.208 -66.634,-67.227 -116.433,-67.249 v 134.271 0.16 z" /></g><g
           transform="translate(280.2918,231.6859)"
           id="g90"><path
             id="path92"
             style="fill:#ffffff;fill-opacity:1;fill-rule:nonzero;stroke:none"
             d="M 0,0 -116.411,-67.204 V 66.954 67.228 C -66.635,67.204 -23.214,40.187 0,0" /></g><g
           transform="translate(163.8806,164.2318)"
           id="g94"><path
             id="path96"
             style="fill:#ffffff;fill-opacity:1;fill-rule:nonzero;stroke:none"
             d="m 0,0 v -134.271 h -0.091 c -49.8,0 -93.265,27.018 -116.503,67.226 l 0.024,0.023 L -0.091,0.205 0,0.159 Z" /></g><g
           transform="translate(163.8806,298.64)"
           id="g98"><path
             id="path100"
             style="fill:#ffffff;fill-opacity:1;fill-rule:nonzero;stroke:none"
             d="m 0,0 v -134.158 l -0.091,-0.045 -116.479,67.249 -0.024,0.023 c 23.26,40.208 66.703,67.204 116.503,67.204 l 0.091,0 z" /></g><g
           transform="translate(163.7898,164.4369)"
           id="g102"><path
             id="path104"
             style="fill:#ffffff;fill-opacity:1;fill-rule:nonzero;stroke:none"
             d="m 0,0 -116.479,-67.228 -0.024,-0.022 c -11.435,19.774 -17.974,42.737 -17.974,67.25 0,24.512 6.539,47.498 17.974,67.272 l 0.024,-0.023 z" /></g></g></g><g
       id="g106"><g
         clip-path="url(#clipPath112)"
         id="g108"><g
           transform="translate(166.324,221.5844)"
           id="g114"><path
             id="path116"
             style="fill:#1a773c;fill-opacity:1;fill-rule:nonzero;stroke:none"
             d="m 0,0 c 0,3.167 -2.708,5.741 -6.049,5.741 -3.338,0 -6.049,-2.574 -6.049,-5.741 0,-3.167 2.711,-5.741 6.049,-5.741 C -2.708,-5.741 0,-3.167 0,0 m -5.533,-28.842 c 2.009,0.947 3.294,2.089 3.933,3.284 l 0.107,3.512 c -0.03,0.064 -0.064,0.127 -0.094,0.193 l -0.358,0.503 -1.868,-0.02 c -2.5,0.073 -4.84,0.452 -7.033,1.091 l 0.319,-10.812 c 1.807,0.833 3.548,1.563 4.994,2.249 m -5.125,-29.112 0.09,13.366 c -0.452,3.431 7.773,3.705 12.737,6.959 4.656,3.134 8.067,8.379 7.95,13.638 -0.131,6.122 -2.33,12.001 -9.934,15.452 -8.681,2.973 -14.402,-0.134 -18.522,-6.505 4.673,-3.461 10.26,-5.315 17.078,-4.971 2.923,-3.343 1.444,-7.589 -3.705,-10.025 -6.21,-2.942 -15.372,-6.046 -16.352,-12.921 -0.868,-6.069 1.878,-11.87 10.658,-14.993 m 5.727,-8.037 c 0.948,0.211 1.71,0.575 2.172,1.1 l 0.703,23.838 c -1.345,-0.472 -2.65,-0.871 -3.742,-1.246 -3.143,-1.084 -3.508,-1.686 -3.454,-2.118 l 0.01,-0.181 -0.091,-13.37 c -0.007,-0.365 -0.147,-0.686 -0.378,-0.917 l 0.244,-8.486 c 1.503,0.586 3.043,1.048 4.536,1.38 m -5.637,-23.775 v 9.581 c 0,3.401 5.283,4.921 8.583,5.513 5.513,0.994 9.851,4.422 10.3,8.944 0.492,4.956 -3.364,9.307 -9.128,11.831 V -64.19 c -0.352,-1.996 -2.209,-2.903 -3.79,-3.257 -7.679,-1.715 -15.448,-6.595 -14.186,-13.551 0.713,-3.924 3.301,-7.207 8.221,-8.768 m 3.391,-3.976 c 1.614,0.478 2.946,1.952 3.548,4.569 0.034,0.148 0.087,0.288 0.168,0.412 l 0.364,12.332 c -3.28,-0.766 -5.978,-2.089 -5.978,-3.756 v -0.358 l 0.402,-13.741 c 0.479,0.208 0.981,0.385 1.496,0.542 m 3.197,-12.867 0.117,4.093 -2.313,-1.218 -0.372,-0.278 c -0.361,-0.321 -0.633,-0.757 -0.703,-1.094 -0.026,-0.121 -0.083,-0.295 0.208,-0.476 l 0.395,-0.174 0.984,-0.197 c 0.626,-0.164 1.188,-0.382 1.684,-0.656 m 0.733,-3.843 c 0.05,1.646 -0.767,2.879 -3.799,3.344 -2.799,0.904 -1.48,3.648 0.181,4.606 3.745,1.838 6.647,3.698 8.22,6.507 0.938,2.775 0.375,4.797 -1.533,6.146 -0.281,0.195 -0.595,0.305 -0.95,0.359 h -1.128 c -0.677,-2.937 -2.264,-4.935 -4.519,-5.605 -6.682,-1.984 -9.574,-8.582 -4.788,-13.817 1.882,-2.06 5.293,-2.759 8.316,-1.54 m -1.102,-8.59 0.199,6.832 c -1.333,-0.311 -2.703,-0.331 -3.991,-0.08 l 0.201,-6.752 z m -26.461,-19.391 v 35.8 l -30.787,-18.99 c -5.028,-3.103 -11.619,-1.54 -14.72,3.488 l -15.382,24.94 c -3.101,5.028 -1.539,11.618 3.489,14.719 l 34.463,21.258 -34.325,21.178 c -5.105,3.149 -6.69,9.84 -3.541,14.944 L -76.314,3.71 c 3.099,5.026 9.687,6.587 14.711,3.486 l 30.79,-18.999 0.002,36.112 c 0,5.944 4.82,10.762 10.764,10.762 H 8.944 c 6.043,0 10.943,-4.899 10.943,-10.943 L 19.884,-11.803 50.445,7.052 c 5.15,3.177 11.899,1.578 15.076,-3.572 l 15.084,-24.449 c 3.194,-5.177 1.586,-11.961 -3.59,-15.154 L 42.82,-57.218 77.1,-78.359 c 5.129,-3.164 6.722,-9.887 3.558,-15.015 L 65.44,-118.041 c -3.132,-5.077 -9.788,-6.654 -14.865,-3.522 l -30.688,18.923 v -35.999 c 0,-5.997 -4.862,-10.858 -10.858,-10.858 h -28.774 c -6.111,0 -11.065,4.954 -11.065,11.064" /></g></g></g></g></svg>