<?xml version="1.0" encoding="UTF-8" standalone="no"?>
<svg
   xmlns:dc="http://purl.org/dc/elements/1.1/"
   xmlns:cc="http://creativecommons.org/ns#"
   xmlns:rdf="http://www.w3.org/1999/02/22-rdf-syntax-ns#"
   xmlns:svg="http://www.w3.org/2000/svg"
   xmlns="http://www.w3.org/2000/svg"
   viewBox="0 0 381.98132 409.62134"
   height="409.62134"
   width="381.98132"
   xml:space="preserve"
   id="svg2"
   version="1.1"><metadata
     id="metadata8"><rdf:RDF><cc:Work
         rdf:about=""><dc:format>image/svg+xml</dc:format><dc:type
           rdf:resource="http://purl.org/dc/dcmitype/StillImage" /></cc:Work></rdf:RDF></metadata><defs
     id="defs6"><clipPath
       id="clipPath18"
       clipPathUnits="userSpaceOnUse"><path
         id="path16"
         d="M 0,307.216 H 286.486 V 0 H 0 Z" /></clipPath></defs><g
     transform="matrix(1.3333333,0,0,-1.3333333,0,409.62133)"
     id="g10"><g
       id="g12"><g
         clip-path="url(#clipPath18)"
         id="g14"><g
           transform="translate(252.9618,214.9234)"
           id="g20"><path
             id="path22"
             style="fill:#ffffff;fill-opacity:1;fill-rule:nonzero;stroke:none"
             d="m 0,0 c 4.785,-8.834 7.415,-18.852 7.415,-29.246 v -64.141 c 0,-10.34 -2.601,-20.308 -7.338,-29.108 L 24.346,-136.5 c 5.92,10.852 9.178,23.175 9.178,35.964 v 78.438 c 0,12.846 -3.288,25.22 -9.257,36.107 z" /></g><g
           transform="translate(277.3075,78.4234)"
           id="g24"><path
             id="path26"
             style="fill:#ffffff;fill-opacity:1;fill-rule:nonzero;stroke:none"
             d="m 0,0 -24.269,14.005 c -0.054,-0.102 -0.112,-0.2 -0.168,-0.302 -5.32,-9.753 -13.271,-18.052 -23.229,-23.794 l -55.719,-32.13 c -8.375,-4.83 -17.605,-7.525 -26.936,-8.094 V -78.33 c 11.694,0.583 23.284,3.89 33.775,9.939 l 68.138,39.292 C -16.23,-22.076 -6.507,-11.928 0,0" /></g><g
           transform="translate(146.9862,279.1079)"
           id="g28"><path
             id="path30"
             style="fill:#ffffff;fill-opacity:1;fill-rule:nonzero;stroke:none"
             d="m 0,0 c 9.331,-0.569 18.562,-3.266 26.938,-8.096 l 55.718,-32.132 c 9.918,-5.719 17.844,-13.975 23.164,-23.677 0.052,-0.094 0.105,-0.186 0.156,-0.28 l 24.266,14.009 c -6.507,11.864 -16.199,21.961 -28.327,28.955 L 33.777,18.073 C 23.285,24.124 11.695,27.432 0,28.015 Z" /></g><g
           transform="translate(146.9862,28.108)"
           id="g32"><path
             id="path34"
             style="fill:#ffffff;fill-opacity:1;fill-rule:nonzero;stroke:none"
             d="m 0,0 c -0.228,-0.014 -0.455,-0.022 -0.683,-0.033 -11.602,-0.578 -23.332,2.126 -33.74,8.128 l -55.719,32.13 c -8.971,5.173 -16.317,12.422 -21.576,20.941 l -24.267,-14.007 c 6.444,-10.56 15.497,-19.548 26.586,-25.942 l 68.137,-39.292 c 12.729,-7.34 27.073,-10.647 41.262,-9.94 z" /></g><g
           transform="translate(35.3505,218.0757)"
           id="g36"><path
             id="path38"
             style="fill:#ffffff;fill-opacity:1;fill-rule:nonzero;stroke:none"
             d="m 0,0 c 5.253,8.46 12.568,15.658 21.493,20.805 l 55.718,32.132 c 10.409,6.002 22.14,8.707 33.742,8.128 0.228,-0.011 0.455,-0.019 0.683,-0.033 V 89.047 C 97.446,89.754 83.102,86.446 70.372,79.105 L 2.234,39.812 C -8.805,33.445 -17.827,24.51 -24.266,14.01 Z" /></g><g
           transform="translate(35.2685,89.274)"
           id="g40"><path
             id="path42"
             style="fill:#ffffff;fill-opacity:1;fill-rule:nonzero;stroke:none"
             d="M 0,0 C -0.056,0.09 -0.108,0.183 -0.163,0.272 -5.946,9.75 -9.159,20.776 -9.159,32.263 v 64.14 c 0,11.533 3.237,22.602 9.064,32.105 0.06,0.097 0.116,0.197 0.177,0.294 l -24.266,14.01 c -7.125,-11.621 -11.085,-25.158 -11.085,-39.26 V 25.113 c 0,-14.046 3.93,-27.53 11.001,-39.12 z" /></g><g
           transform="translate(146.3036,153.6275)"
           id="g44"><path
             id="path46"
             style="fill:#ffffff;fill-opacity:1;fill-rule:nonzero;stroke:none"
             d="M 0,0 V 0.091 L -0.091,0.046 Z" /></g><g
           transform="translate(148.747,210.8208)"
           id="g48"><path
             id="path50"
             style="fill:#ffffff;fill-opacity:1;fill-rule:nonzero;stroke:none"
             d="m 0,0 c 0,3.166 -2.708,5.74 -6.049,5.74 -3.337,0 -6.049,-2.574 -6.049,-5.74 0,-3.167 2.712,-5.741 6.049,-5.741 C -2.708,-5.741 0,-3.167 0,0 m -5.533,-28.842 c 2.009,0.947 3.294,2.089 3.933,3.284 l 0.107,3.511 c -0.03,0.065 -0.064,0.128 -0.094,0.194 l -0.357,0.502 -1.869,-0.019 c -2.5,0.073 -4.84,0.452 -7.033,1.091 l 0.319,-10.812 c 1.807,0.833 3.548,1.563 4.994,2.249 m -5.125,-29.112 0.091,13.366 c -0.453,3.431 7.772,3.705 12.736,6.959 4.656,3.133 8.067,8.379 7.95,13.638 -0.13,6.122 -2.329,12 -9.934,15.452 -8.681,2.972 -14.402,-0.135 -18.522,-6.505 4.673,-3.461 10.26,-5.315 17.078,-4.971 2.923,-3.343 1.444,-7.589 -3.705,-10.025 -6.21,-2.942 -15.372,-6.046 -16.352,-12.921 -0.868,-6.069 1.878,-11.87 10.658,-14.993 m 5.727,-8.038 c 0.948,0.211 1.711,0.576 2.173,1.101 l 0.702,23.837 c -1.345,-0.471 -2.65,-0.87 -3.742,-1.245 -3.143,-1.084 -3.508,-1.686 -3.454,-2.118 l 0.01,-0.182 -0.091,-13.369 c -0.006,-0.365 -0.146,-0.686 -0.378,-0.917 l 0.244,-8.486 c 1.503,0.586 3.043,1.048 4.536,1.379 m -5.636,-23.774 v 9.581 c 0,3.401 5.282,4.921 8.582,5.513 5.513,0.994 9.851,4.422 10.3,8.944 0.493,4.955 -3.364,9.307 -9.128,11.831 V -64.19 c -0.352,-1.996 -2.209,-2.903 -3.79,-3.258 -7.678,-1.714 -15.448,-6.594 -14.186,-13.55 0.713,-3.924 3.301,-7.207 8.222,-8.768 m 3.39,-3.976 c 1.614,0.478 2.946,1.952 3.548,4.569 0.034,0.148 0.087,0.288 0.168,0.412 l 0.364,12.332 c -3.28,-0.766 -5.978,-2.089 -5.978,-3.756 v -0.358 l 0.402,-13.741 c 0.479,0.207 0.981,0.385 1.496,0.542 m 3.197,-12.867 0.117,4.093 -2.313,-1.218 -0.372,-0.278 c -0.361,-0.321 -0.633,-0.757 -0.703,-1.094 -0.026,-0.122 -0.083,-0.295 0.208,-0.476 l 0.395,-0.174 0.984,-0.197 c 0.626,-0.164 1.188,-0.382 1.684,-0.656 m 0.733,-3.843 c 0.051,1.646 -0.767,2.879 -3.799,3.344 -2.799,0.904 -1.479,3.648 0.181,4.606 3.745,1.838 6.647,3.698 8.22,6.507 0.938,2.775 0.375,4.797 -1.533,6.146 -0.281,0.194 -0.595,0.305 -0.95,0.358 h -1.128 c -0.677,-2.936 -2.263,-4.934 -4.519,-5.604 -6.682,-1.984 -9.574,-8.582 -4.787,-13.818 1.881,-2.059 5.292,-2.758 8.315,-1.539 m -1.102,-8.59 0.199,6.832 c -1.333,-0.311 -2.703,-0.331 -3.991,-0.08 l 0.201,-6.752 z m -26.461,-19.391 v 35.8 l -30.787,-18.99 c -5.028,-3.103 -11.619,-1.54 -14.72,3.488 l -15.382,24.94 c -3.101,5.028 -1.539,11.618 3.489,14.718 l 34.464,21.259 -34.326,21.178 c -5.104,3.149 -6.69,9.84 -3.541,14.944 l 15.3,24.806 c 3.098,5.026 9.686,6.587 14.71,3.486 l 30.79,-19 0.002,36.113 c 0,5.944 4.82,10.762 10.764,10.762 H 8.944 c 6.043,0 10.943,-4.899 10.943,-10.943 L 19.884,-11.804 50.445,7.052 c 5.15,3.177 11.899,1.578 15.076,-3.572 l 15.084,-24.449 c 3.194,-5.177 1.586,-11.962 -3.59,-15.154 L 42.82,-57.218 77.101,-78.36 c 5.128,-3.163 6.721,-9.886 3.557,-15.015 L 65.44,-118.041 c -3.132,-5.077 -9.787,-6.654 -14.865,-3.522 l -30.687,18.923 v -35.999 c 0,-5.997 -4.863,-10.858 -10.859,-10.858 h -28.774 c -6.111,0 -11.065,4.954 -11.065,11.064" /></g></g></g></g></svg>