<?xml version="1.0" encoding="UTF-8" standalone="no"?>
<svg
   xmlns:dc="http://purl.org/dc/elements/1.1/"
   xmlns:cc="http://creativecommons.org/ns#"
   xmlns:rdf="http://www.w3.org/1999/02/22-rdf-syntax-ns#"
   xmlns:svg="http://www.w3.org/2000/svg"
   xmlns="http://www.w3.org/2000/svg"
   viewBox="0 0 1435.9467 409.62134"
   height="409.62134"
   width="1435.9467"
   xml:space="preserve"
   id="svg2"
   version="1.1"><metadata
     id="metadata8"><rdf:RDF><cc:Work
         rdf:about=""><dc:format>image/svg+xml</dc:format><dc:type
           rdf:resource="http://purl.org/dc/dcmitype/StillImage" /></cc:Work></rdf:RDF></metadata><defs
     id="defs6"><clipPath
       id="clipPath18"
       clipPathUnits="userSpaceOnUse"><path
         id="path16"
         d="M 0,307.216 H 1076.964 V 0 H 0 Z" /></clipPath></defs><g
     transform="matrix(1.3333333,0,0,-1.3333333,0,409.62133)"
     id="g10"><g
       id="g12"><g
         clip-path="url(#clipPath18)"
         id="g14"><text
           id="text22"
           style="font-variant:normal;font-weight:bold;font-stretch:normal;font-size:178.69290161px;font-family:Arvo;-inkscape-font-specification:Arvo-Bold;writing-mode:lr-tb;fill:#ffffff;fill-opacity:1;fill-rule:nonzero;stroke:none"
           transform="matrix(1,0,0,-1,323.5107,108.8467)"><tspan
             id="tspan20"
             y="0"
             x="0 108.64529 177.79944 318.78815 516.24377 629.5351">SINMED</tspan></text>
<text
           id="text26"
           style="font-variant:normal;font-weight:normal;font-stretch:normal;font-size:43.86959839px;font-family:Montserrat;-inkscape-font-specification:Montserrat-Regular;writing-mode:lr-tb;fill:#ffffff;fill-opacity:1;fill-rule:nonzero;stroke:none"
           transform="matrix(1,0,0,-1,322.2861,48)"><tspan
             id="tspan24"
             y="0"
             x="0 27.637848 39.658119 67.997879 97.478249 109.49852 134.59193 160.07579 178.23779 206.84077 218.86105 248.34142 276.9444 299.14243 311.16269 354.2865 381.39792 410.8783 422.89856 447.68488 476.28787 498.48587 510.50613 539.98651 567.09796 579.11823 611.66943 623.6897 649.44116 678.1319 706.73486 732.48633">Sindicato dos Médicos de Alagoas</tspan></text>
<g
           transform="translate(252.9619,214.9235)"
           id="g28"><path
             id="path30"
             style="fill:#ffffff;fill-opacity:1;fill-rule:nonzero;stroke:none"
             d="m 0,0 c 4.785,-8.834 7.415,-18.853 7.415,-29.246 v -64.142 c 0,-10.339 -2.601,-20.307 -7.339,-29.107 l 24.27,-14.006 c 5.92,10.853 9.178,23.176 9.178,35.965 v 78.437 c 0,12.847 -3.288,25.221 -9.258,36.108 z" /></g><g
           transform="translate(277.3076,78.4226)"
           id="g32"><path
             id="path34"
             style="fill:#ffffff;fill-opacity:1;fill-rule:nonzero;stroke:none"
             d="m 0,0 -24.27,14.006 c -0.053,-0.102 -0.111,-0.2 -0.167,-0.302 -5.321,-9.753 -13.272,-18.052 -23.229,-23.794 l -55.719,-32.13 c -8.375,-4.83 -17.605,-7.526 -26.937,-8.094 v -28.015 c 11.695,0.583 23.285,3.89 33.776,9.939 l 68.138,39.292 C -16.23,-22.076 -6.508,-11.927 0,0" /></g><g
           transform="translate(146.9854,279.1081)"
           id="g36"><path
             id="path38"
             style="fill:#ffffff;fill-opacity:1;fill-rule:nonzero;stroke:none"
             d="m 0,0 c 9.332,-0.569 18.563,-3.266 26.939,-8.096 l 55.718,-32.133 c 9.917,-5.718 17.844,-13.974 23.164,-23.676 0.052,-0.094 0.105,-0.186 0.156,-0.28 l 24.265,14.009 c -6.506,11.864 -16.198,21.961 -28.326,28.955 L 33.778,18.073 C 23.286,24.124 11.695,27.432 0,28.014 Z" /></g><g
           transform="translate(146.9854,28.1081)"
           id="g40"><path
             id="path42"
             style="fill:#ffffff;fill-opacity:1;fill-rule:nonzero;stroke:none"
             d="m 0,0 c -0.227,-0.014 -0.455,-0.022 -0.682,-0.033 -11.602,-0.578 -23.332,2.125 -33.74,8.128 l -55.719,32.13 c -8.972,5.173 -16.317,12.422 -21.576,20.941 l -24.267,-14.007 c 6.444,-10.56 15.497,-19.548 26.586,-25.942 l 68.137,-39.292 c 12.729,-7.34 27.073,-10.647 41.261,-9.94 z" /></g><g
           transform="translate(35.3506,218.0759)"
           id="g44"><path
             id="path46"
             style="fill:#ffffff;fill-opacity:1;fill-rule:nonzero;stroke:none"
             d="m 0,0 c 5.252,8.46 12.568,15.658 21.492,20.804 l 55.719,32.133 c 10.409,6.002 22.139,8.707 33.742,8.128 0.227,-0.011 0.455,-0.019 0.682,-0.033 v 28.014 c -14.19,0.708 -28.533,-2.6 -41.263,-9.941 L 2.234,39.812 C -8.805,33.445 -17.827,24.51 -24.266,14.01 Z" /></g><g
           transform="translate(35.2686,89.2741)"
           id="g48"><path
             id="path50"
             style="fill:#ffffff;fill-opacity:1;fill-rule:nonzero;stroke:none"
             d="M 0,0 C -0.056,0.09 -0.108,0.182 -0.164,0.272 -5.946,9.75 -9.16,20.775 -9.16,32.262 v 64.141 c 0,11.533 3.238,22.602 9.065,32.105 0.06,0.097 0.116,0.197 0.177,0.294 l -24.266,14.01 c -7.125,-11.621 -11.085,-25.158 -11.085,-39.261 V 25.113 c 0,-14.047 3.929,-27.53 11.001,-39.12 z" /></g><g
           transform="translate(146.3037,153.6276)"
           id="g52"><path
             id="path54"
             style="fill:#ffffff;fill-opacity:1;fill-rule:nonzero;stroke:none"
             d="M 0,0 V 0.091 L -0.092,0.045 Z" /></g><g
           transform="translate(148.7471,210.821)"
           id="g56"><path
             id="path58"
             style="fill:#ffffff;fill-opacity:1;fill-rule:nonzero;stroke:none"
             d="m 0,0 c 0,3.166 -2.708,5.74 -6.049,5.74 -3.338,0 -6.049,-2.574 -6.049,-5.74 0,-3.167 2.711,-5.741 6.049,-5.741 C -2.708,-5.741 0,-3.167 0,0 m -5.533,-28.842 c 2.009,0.947 3.294,2.089 3.933,3.284 l 0.107,3.511 c -0.03,0.064 -0.064,0.128 -0.094,0.194 l -0.358,0.502 -1.868,-0.019 c -2.5,0.073 -4.84,0.451 -7.033,1.091 l 0.319,-10.813 c 1.807,0.834 3.548,1.564 4.994,2.25 m -5.125,-29.113 0.09,13.367 c -0.452,3.431 7.773,3.705 12.737,6.959 4.656,3.133 8.067,8.379 7.95,13.638 -0.131,6.122 -2.33,12 -9.934,15.451 -8.681,2.973 -14.402,-0.134 -18.522,-6.504 4.673,-3.461 10.26,-5.315 17.078,-4.971 2.923,-3.343 1.444,-7.589 -3.705,-10.025 -6.21,-2.942 -15.372,-6.046 -16.352,-12.922 -0.868,-6.068 1.878,-11.869 10.658,-14.993 m 5.727,-8.037 c 0.948,0.211 1.71,0.576 2.172,1.101 l 0.703,23.837 c -1.345,-0.471 -2.65,-0.87 -3.742,-1.245 -3.143,-1.084 -3.508,-1.686 -3.454,-2.119 l 0.01,-0.181 -0.091,-13.369 c -0.007,-0.365 -0.147,-0.686 -0.378,-0.917 l 0.244,-8.486 c 1.503,0.586 3.043,1.048 4.536,1.379 m -5.637,-23.774 v 9.581 c 0,3.401 5.283,4.92 8.583,5.513 5.513,0.994 9.851,4.422 10.3,8.944 0.492,4.955 -3.364,9.306 -9.128,11.831 v -10.294 c -0.352,-1.995 -2.209,-2.902 -3.79,-3.257 -7.679,-1.714 -15.448,-6.594 -14.186,-13.55 0.713,-3.924 3.301,-7.207 8.221,-8.768 m 3.391,-3.976 c 1.614,0.478 2.946,1.951 3.548,4.569 0.034,0.148 0.087,0.288 0.168,0.412 l 0.364,12.332 c -3.28,-0.766 -5.978,-2.089 -5.978,-3.756 v -0.358 l 0.402,-13.741 c 0.479,0.207 0.981,0.385 1.496,0.542 m 3.197,-12.867 0.117,4.093 -2.313,-1.218 -0.372,-0.278 c -0.361,-0.321 -0.633,-0.757 -0.703,-1.094 -0.026,-0.122 -0.083,-0.295 0.208,-0.476 l 0.395,-0.174 0.984,-0.198 c 0.626,-0.163 1.188,-0.381 1.684,-0.655 m 0.733,-3.843 c 0.05,1.646 -0.767,2.878 -3.799,3.344 -2.799,0.903 -1.48,3.648 0.181,4.606 3.745,1.837 6.647,3.698 8.22,6.507 0.938,2.775 0.375,4.797 -1.533,6.146 -0.281,0.194 -0.595,0.304 -0.95,0.358 h -1.128 c -0.677,-2.936 -2.264,-4.934 -4.519,-5.604 -6.682,-1.984 -9.574,-8.583 -4.788,-13.818 1.882,-2.059 5.293,-2.758 8.316,-1.539 m -1.102,-8.59 0.199,6.832 c -1.333,-0.311 -2.703,-0.331 -3.991,-0.08 l 0.201,-6.752 z m -26.461,-19.391 v 35.8 l -30.787,-18.991 c -5.028,-3.102 -11.619,-1.539 -14.72,3.489 l -15.382,24.94 c -3.101,5.028 -1.539,11.618 3.489,14.718 l 34.463,21.259 -34.325,21.178 c -5.105,3.149 -6.69,9.84 -3.541,14.944 L -76.314,3.71 c 3.099,5.025 9.687,6.586 14.711,3.485 l 30.79,-18.999 0.002,36.113 c 0,5.943 4.82,10.762 10.764,10.762 H 8.944 c 6.043,0 10.943,-4.9 10.943,-10.943 L 19.884,-11.804 50.445,7.052 c 5.15,3.177 11.899,1.577 15.076,-3.572 l 15.084,-24.449 c 3.194,-5.177 1.586,-11.962 -3.59,-15.155 L 42.82,-57.218 77.1,-78.36 c 5.129,-3.163 6.722,-9.886 3.558,-15.015 L 65.44,-118.041 c -3.132,-5.077 -9.788,-6.654 -14.865,-3.522 l -30.688,18.923 v -35.999 c 0,-5.997 -4.862,-10.858 -10.858,-10.858 h -28.774 c -6.111,0 -11.065,4.953 -11.065,11.064" /></g></g></g></g></svg>