<?xml version="1.0" encoding="iso-8859-1"?>
<!-- Generator: Adobe Illustrator 16.0.0, SVG Export Plug-In . SVG Version: 6.00 Build 0)  -->
<!DOCTYPE svg PUBLIC "-//W3C//DTD SVG 1.1//EN" "http://www.w3.org/Graphics/SVG/1.1/DTD/svg11.dtd">
<svg version="1.1" id="Capa_1" xmlns="http://www.w3.org/2000/svg" xmlns:xlink="http://www.w3.org/1999/xlink" x="0px" y="0px"
	 width="46.167px" height="46.167px" viewBox="0 0 46.167 46.167" style="enable-background:new 0 0 46.167 46.167;"
	 xml:space="preserve" fill="#129238">
<g>
	<g>
		<path d="M43.229,10.726h-8.071v-0.302c0-4.497-3.681-8.15-8.179-8.15h-7.779c-4.498,0-8.19,3.653-8.19,8.15v0.302h-8.06
			C1.32,10.726,0,12.074,0,13.704v27.23c0,1.629,1.32,2.96,2.949,2.96H43.23c1.629,0,2.937-1.332,2.937-2.96v-27.23
			C46.167,12.074,44.857,10.726,43.229,10.726z M15.057,10.423c0-2.283,1.859-4.172,4.142-4.172h7.779
			c2.283,0,4.131,1.889,4.131,4.172v0.302H15.057V10.423z M23.089,39.254c-6.58,0-11.934-5.354-11.934-11.935
			s5.354-11.935,11.934-11.935c6.581,0,11.935,5.354,11.935,11.935S29.67,39.254,23.089,39.254z"/>
		<path d="M23.089,18.396c-4.919,0-8.922,4.003-8.922,8.923c0,4.919,4.003,8.922,8.922,8.922c4.92,0,8.923-4.003,8.923-8.922
			C32.012,22.399,28.009,18.396,23.089,18.396z M27.961,29.326h-2.889v2.877c0,1.108-0.881,2.008-1.989,2.008
			c-1.108,0-1.989-0.899-1.989-2.008v-2.877h-2.882c-1.109,0-2.011-0.898-2.011-2.007s0.904-2.008,2.013-2.008h2.881v-2.875
			c0-1.109,0.88-2.008,1.989-2.008c1.109,0,1.989,0.899,1.989,2.008v2.875h2.889c1.108,0,2.009,0.899,2.009,2.008
			C29.969,28.428,29.07,29.326,27.961,29.326z"/>
	</g>
</g>
<g>
</g>
<g>
</g>
<g>
</g>
<g>
</g>
<g>
</g>
<g>
</g>
<g>
</g>
<g>
</g>
<g>
</g>
<g>
</g>
<g>
</g>
<g>
</g>
<g>
</g>
<g>
</g>
<g>
</g>
</svg>
